<svg width="18" height="17" viewBox="0 0 18 17" fill="none" xmlns="http://www.w3.org/2000/svg">
<path fill-rule="evenodd" clip-rule="evenodd" d="M14.554 11.9315C15.0681 11.9309 15.5659 11.7689 15.9628 11.4732C16.3596 11.1776 16.6307 10.7666 16.73 10.3103L17.845 5.26824C17.9096 4.97603 17.9018 4.67448 17.8222 4.38533C17.7425 4.09617 17.5931 3.8266 17.3845 3.59596C17.176 3.36531 16.9135 3.17934 16.616 3.05143C16.3185 2.92353 15.9934 2.85687 15.664 2.85623H4.56402V1.84747C4.56375 1.58072 4.44672 1.3249 4.23851 1.13602C4.0303 0.947139 3.74787 0.840556 3.45302 0.8396H1.23803C0.948222 0.847454 0.673195 0.957114 0.471272 1.14535C0.26935 1.33359 0.156423 1.5856 0.156423 1.84792C0.156423 2.11023 0.26935 2.36224 0.471272 2.55048C0.673195 2.73872 0.948222 2.84838 1.23803 2.85623H2.35302V12.9394C1.91174 12.9376 1.4798 13.0544 1.11193 13.2749C0.744058 13.4954 0.456822 13.8096 0.28658 14.178C0.116338 14.5463 0.0707552 14.9521 0.155629 15.3438C0.240503 15.7356 0.451996 16.0958 0.763326 16.3788C1.07465 16.6617 1.47181 16.8546 1.90447 16.9332C2.33712 17.0117 2.78581 16.9723 3.19368 16.82C3.60156 16.6676 3.9503 16.4091 4.19567 16.0773C4.44104 15.7455 4.57201 15.3553 4.57201 14.956H12.338C12.3398 15.3529 12.4715 15.7404 12.7165 16.0696C12.9615 16.3989 13.3089 16.655 13.7147 16.8058C14.1205 16.9566 14.5666 16.9952 14.9966 16.9168C15.4266 16.8384 15.8214 16.6464 16.1309 16.3652C16.4405 16.084 16.6511 15.7261 16.736 15.3367C16.8209 14.9473 16.7764 14.5439 16.6081 14.1774C16.4399 13.8108 16.1553 13.4976 15.7905 13.2773C15.4256 13.0569 14.9967 12.9394 14.558 12.9394H4.57103V11.9315H14.554ZM15.669 4.87469L14.554 9.91671H4.56701V4.87469H15.667H15.669Z" fill="#33A0FF"/>
</svg>
