<svg width="9" height="16" viewBox="0 0 9 16" fill="none" xmlns="http://www.w3.org/2000/svg">
<path d="M0.808037 8.31142H2.46603V15.1394C2.46603 15.2041 2.49175 15.2662 2.53751 15.312C2.58327 15.3577 2.64532 15.3834 2.71004 15.3834H5.52203C5.58675 15.3834 5.64881 15.3577 5.69456 15.312C5.74032 15.2662 5.76604 15.2041 5.76604 15.1394V8.34342H7.67303C7.73283 8.34332 7.79052 8.32127 7.83513 8.28145C7.87974 8.24164 7.90818 8.18682 7.91504 8.12742L8.20503 5.61342C8.20898 5.57927 8.20567 5.54468 8.19531 5.5119C8.18496 5.47913 8.16779 5.44891 8.14494 5.42323C8.1221 5.39755 8.09408 5.37699 8.06273 5.36289C8.03138 5.34879 7.9974 5.34147 7.96303 5.34142H5.76303V3.76642C5.76303 3.29142 6.01904 3.05042 6.52304 3.05042H7.95903C8.02374 3.05042 8.0858 3.02471 8.13156 2.97895C8.17732 2.93319 8.20303 2.87113 8.20303 2.80642V0.499418C8.20357 0.435047 8.17865 0.373072 8.1337 0.326994C8.08874 0.280917 8.02739 0.254471 7.96303 0.253418L5.98204 0.253418H5.89104C4.97882 0.256637 4.09833 0.588595 3.41104 1.18842C3.08673 1.47184 2.83789 1.83139 2.6869 2.23476C2.53592 2.63814 2.48752 3.07271 2.54604 3.49942V5.34242H0.805031C0.740318 5.34242 0.678259 5.36812 0.6325 5.41388C0.586741 5.45964 0.561035 5.52171 0.561035 5.58642V8.06742C0.561033 8.09971 0.567438 8.13169 0.579887 8.16149C0.592337 8.19129 0.610584 8.21832 0.63356 8.24102C0.656536 8.26372 0.683787 8.28163 0.713737 8.29371C0.743688 8.3058 0.775743 8.31181 0.808037 8.31142Z" fill="#385C8E"/>
</svg>
