<svg width="19" height="15" viewBox="0 0 19 15" fill="none" xmlns="http://www.w3.org/2000/svg">
<path fill-rule="evenodd" clip-rule="evenodd" d="M12.936 2.86408C13.5799 2.86468 14.2098 3.0334 14.7502 3.35002C15.2907 3.66664 15.7185 4.11768 15.9825 4.64896C16.2465 5.18023 16.3354 5.76918 16.2385 6.34504C16.1415 6.92089 15.8629 7.45915 15.436 7.89523C14.823 8.52039 9.59606 12.9472 9.59606 12.9472C9.59606 12.9472 4.35805 8.5204 3.74505 7.88529C3.20385 7.3357 2.90613 6.62464 2.90905 5.88859C2.92421 5.09538 3.28312 4.33926 3.9085 3.78316C4.53388 3.22707 5.37568 2.91549 6.25255 2.91549C7.12942 2.91549 7.97117 3.22707 8.59655 3.78316C9.22192 4.33926 9.5809 5.09538 9.59606 5.88859C9.59606 5.49129 9.68252 5.09785 9.85058 4.73079C10.0186 4.36373 10.265 4.03025 10.5755 3.74931C10.886 3.46838 11.2546 3.2455 11.6603 3.09346C12.066 2.94142 12.5009 2.8632 12.9401 2.8632L12.936 2.86408ZM12.9401 0.846565C11.7338 0.844661 10.5597 1.19882 9.59606 1.85532C8.4921 1.11401 7.1242 0.768019 5.75536 0.883894C4.38652 0.999769 3.11332 1.56933 2.18053 2.48306C1.24774 3.3968 0.721185 4.59021 0.702077 5.83392C0.682969 7.07763 1.17266 8.28383 2.07702 9.22067C2.70302 9.87026 6.82602 13.3625 8.07702 14.4174C8.48994 14.7668 9.03419 14.9611 9.59954 14.9611C10.1649 14.9611 10.7091 14.7668 11.122 14.4174C12.366 13.3634 16.472 9.88023 17.106 9.23155C17.8173 8.50457 18.2816 7.60724 18.4429 6.64737C18.6042 5.68749 18.4557 4.70589 18.0154 3.82049C17.575 2.93509 16.8614 2.18353 15.9604 1.65614C15.0593 1.12876 14.0092 0.847946 12.936 0.847449L12.9401 0.846565Z" fill="#33A0FF"/>
</svg>
