<svg width="39" height="26" viewBox="0 0 39 26" fill="none" xmlns="http://www.w3.org/2000/svg">
<path d="M2.45985 0.349365H37.1948C37.6436 0.36142 38.0694 0.550379 38.3793 0.875244C38.6892 1.20011 38.8579 1.63439 38.8488 2.08325V23.7561C38.8579 24.205 38.6892 24.6392 38.3793 24.9641C38.0694 25.289 37.6436 25.4779 37.1948 25.49H2.45985C2.01105 25.4779 1.58515 25.289 1.27528 24.9641C0.965398 24.6392 0.796652 24.205 0.805793 23.7561V2.08423C0.796385 1.63519 0.965126 1.20081 1.27503 0.875732C1.58494 0.55065 2.01088 0.36142 2.45985 0.349365Z" fill="#F1F1F1"/>
<path d="M1.21778 24.8992C0.952164 24.5784 0.807499 24.1745 0.808845 23.7581V2.08423C0.799437 1.63519 0.968056 1.20081 1.27796 0.875732C1.58787 0.55065 2.01381 0.36142 2.46278 0.349365H37.1968C37.6185 0.350311 38.0228 0.516826 38.3228 0.813232L1.22279 24.8992H1.21778Z" fill="white" fill-opacity="0.73"/>
<path d="M15.4539 18.3143L16.7538 15.9642L16.0298 10.3201H17.8008L18.0868 13.6605L19.8198 10.3201H21.6478L17.4388 18.3143H15.4539ZM9.90076 14.0985C10.1738 12.7245 11.5008 12.2884 13.4628 12.2884C13.5798 11.6774 13.1908 11.5242 12.5288 11.5472C11.9451 11.5755 11.3713 11.7086 10.8348 11.9403L10.9897 10.5672C11.6339 10.3671 12.3011 10.2497 12.9749 10.2181C14.2009 10.1961 15.5638 10.5875 15.2528 12.1805L14.4938 15.9305H12.7228L12.8387 15.3621C12.6332 15.5743 12.3875 15.7436 12.1158 15.8597C11.8442 15.9758 11.5522 16.0365 11.2568 16.0384C10.4178 16.0344 9.67086 15.4881 9.90186 14.0941L9.90076 14.0985ZM11.7118 14.0111C11.656 14.09 11.6244 14.1835 11.6206 14.2801C11.6168 14.3767 11.6411 14.4724 11.6906 14.5555C11.74 14.6385 11.8123 14.7056 11.8989 14.7484C11.9856 14.7911 12.0829 14.8075 12.1788 14.7962C12.3979 14.806 12.6131 14.7363 12.7849 14.5999C12.9567 14.4636 13.0735 14.2701 13.1138 14.0545C13.1369 13.886 13.1703 13.719 13.2137 13.5545H12.7657C12.5662 13.536 12.3653 13.5677 12.1812 13.6468C11.997 13.7259 11.8357 13.8496 11.7118 14.0072V14.0111ZM3.80078 15.9305L5.26477 8.75813H8.57178C8.86658 8.75552 9.15773 8.82374 9.42078 8.95686C9.68382 9.08998 9.91113 9.28418 10.0836 9.52327C10.2561 9.76235 10.3687 10.0393 10.4121 10.3309C10.4555 10.6225 10.4282 10.9201 10.3328 11.199C10.2376 11.8549 9.90883 12.4543 9.40686 12.887C8.90489 13.3197 8.26355 13.557 7.60083 13.5545H6.21777L5.7428 15.9305H3.80078ZM6.49377 12.1805H7.40381C7.67001 12.1593 7.92205 12.0518 8.12207 11.8748C8.32209 11.6979 8.45926 11.4607 8.51282 11.199C8.55479 11.0914 8.57019 10.9755 8.55774 10.8607C8.54529 10.7458 8.50535 10.6355 8.44128 10.5394C8.37722 10.4432 8.29091 10.3641 8.1897 10.3084C8.08848 10.2527 7.97525 10.2218 7.85974 10.2191H6.90979L6.49377 12.1805Z" fill="#3284AE"/>
<path d="M27.1178 14.094C27.3938 12.72 28.7348 12.2854 30.7238 12.2854C30.8618 11.6734 30.4679 11.5222 29.7979 11.5442C29.2017 11.5748 28.6152 11.7075 28.0638 11.9363L28.2218 10.5632C28.8816 10.3656 29.5629 10.2486 30.2509 10.2151C31.4919 10.1931 32.8508 10.584 32.5358 12.176L31.7678 15.925H29.9948L30.1128 15.3591C29.6832 15.7883 29.1019 16.0314 28.4948 16.0354C27.6368 16.0344 26.8808 15.489 27.1178 14.094ZM28.9508 14.0071C28.8969 14.0887 28.8676 14.1842 28.8665 14.282C28.8653 14.3798 28.8925 14.4755 28.9445 14.5583C28.9965 14.6412 29.0711 14.7073 29.1597 14.7488C29.2482 14.7902 29.347 14.8054 29.4438 14.7922C29.6616 14.802 29.8755 14.732 30.0458 14.5959C30.2161 14.4598 30.3312 14.2666 30.3698 14.052C30.4088 13.877 30.4288 13.724 30.4698 13.552H30.0367C29.8318 13.5313 29.6249 13.5621 29.4348 13.6414C29.2447 13.7206 29.0773 13.8459 28.9478 14.0061L28.9508 14.0071ZM32.5868 15.925L34.0529 8.7312H35.8728L34.3878 15.925H32.5868ZM21.0178 15.925L22.4799 8.75415H25.7798C26.0737 8.75336 26.3637 8.82264 26.6255 8.9563C26.8873 9.08996 27.1135 9.28415 27.2853 9.52271C27.4571 9.76126 27.5694 10.0372 27.6132 10.3279C27.6569 10.6186 27.6307 10.9156 27.5367 11.1941C27.4415 11.8523 27.1108 12.4535 26.6061 12.8865C26.1013 13.3195 25.4568 13.555 24.7917 13.5491H23.4288L22.9348 15.9241L21.0178 15.925ZM23.7048 12.176H24.5928C24.8611 12.1554 25.1157 12.049 25.3187 11.8723C25.5217 11.6956 25.6624 11.458 25.7198 11.1951C25.7596 11.086 25.7728 10.969 25.7583 10.8538C25.7438 10.7385 25.702 10.6283 25.6364 10.5325C25.5707 10.4366 25.4832 10.3582 25.381 10.303C25.2788 10.2478 25.165 10.2174 25.0488 10.2151H24.1008L23.7048 12.176Z" fill="#3CA9C7"/>
</svg>
