<svg width="16" height="13" viewBox="0 0 16 13" fill="none" xmlns="http://www.w3.org/2000/svg">
<path d="M15.1247 1.66029C14.5744 1.90041 13.9925 2.06005 13.3967 2.13429C14.0248 1.76182 14.4945 1.17189 14.7167 0.476287C14.1293 0.824655 13.4867 1.07018 12.8167 1.20229C12.4055 0.762247 11.8714 0.456144 11.2839 0.32381C10.6964 0.191476 10.0826 0.239036 9.52249 0.460304C8.96236 0.681571 8.4818 1.0663 8.14332 1.56443C7.80485 2.06257 7.62414 2.65104 7.6247 3.25329C7.62251 3.48318 7.64598 3.7126 7.6947 3.93729C6.50132 3.8787 5.33375 3.56891 4.2683 3.02817C3.20285 2.48743 2.26351 1.72792 1.5117 0.799289C1.1256 1.45919 1.00601 2.2416 1.17737 2.9867C1.34873 3.7318 1.79811 4.38336 2.4337 4.80829C1.95898 4.79569 1.49426 4.66913 1.0787 4.43929V4.47229C1.07934 5.16456 1.31827 5.83551 1.75533 6.37236C2.1924 6.90922 2.80095 7.27926 3.4787 7.42029C3.22196 7.48838 2.95731 7.52201 2.6917 7.52029C2.50108 7.52375 2.31065 7.50665 2.1237 7.46929C2.3173 8.06425 2.69045 8.58463 3.19184 8.95888C3.69323 9.33313 4.29825 9.54288 4.9237 9.55929C3.8631 10.388 2.55566 10.8379 1.2097 10.8373C0.969736 10.839 0.729911 10.8253 0.491699 10.7963C1.86287 11.6798 3.46055 12.1473 5.0917 12.1423C6.21494 12.1501 7.32855 11.9347 8.36784 11.5085C9.40713 11.0824 10.3514 10.4539 11.1457 9.65975C11.9401 8.86557 12.5688 7.92147 12.9952 6.88228C13.4216 5.84309 13.6373 4.72954 13.6297 3.60629C13.6297 3.47329 13.6297 3.34529 13.6187 3.21829C14.2113 2.79493 14.7217 2.26694 15.1247 1.66029Z" fill="#03A9F4"/>
</svg>
