<svg width="39" height="26" viewBox="0 0 39 26" fill="none" xmlns="http://www.w3.org/2000/svg">
<path d="M2.27684 0.188232H37.2497C37.7005 0.197422 38.1291 0.385026 38.4414 0.710205C38.7536 1.03538 38.9239 1.4714 38.9148 1.92212V23.5964C38.9239 24.0472 38.7536 24.4827 38.4414 24.8079C38.1291 25.133 37.7005 25.3211 37.2497 25.3303H2.27684C1.82611 25.3211 1.39743 25.133 1.08519 24.8079C0.772947 24.4827 0.602688 24.0472 0.611798 23.5964V1.92212C0.602688 1.4714 0.772947 1.03538 1.08519 0.710205C1.39743 0.385026 1.82611 0.197422 2.27684 0.188232Z" fill="#5870BE"/>
<path d="M17.3668 12.755C17.3672 10.9792 17.8942 9.2435 18.881 7.7672C19.8678 6.2909 21.2702 5.14037 22.9109 4.46105C24.5516 3.78173 26.3568 3.60419 28.0984 3.95079C29.84 4.2974 31.4397 5.1526 32.6953 6.40831C33.9509 7.66403 34.8059 9.26385 35.1523 11.0055C35.4988 12.7471 35.3209 14.5524 34.6414 16.193C33.9619 17.8336 32.8113 19.2356 31.3348 20.2223C29.8584 21.2089 28.1226 21.7358 26.3468 21.736C25.1674 21.736 23.9996 21.5037 22.91 21.0524C21.8205 20.601 20.8305 19.9396 19.9966 19.1056C19.1627 18.2716 18.5013 17.2816 18.05 16.192C17.5988 15.1024 17.3667 13.9343 17.3668 12.755Z" fill="#FFAF38"/>
<path d="M12.5877 21.7341C11.0567 21.7339 9.55106 21.3423 8.21396 20.5964C6.87686 19.8505 5.75268 18.7751 4.94821 17.4724C4.14375 16.1697 3.68572 14.6831 3.61765 13.1535C3.54957 11.6239 3.87374 10.1021 4.5593 8.73311C5.24486 7.36409 6.26908 6.19347 7.53464 5.33174C8.80019 4.47001 10.265 3.94595 11.79 3.80977C13.315 3.67358 14.8496 3.92956 16.2478 4.55342C17.646 5.17728 18.8615 6.14833 19.7788 7.37422H18.5788V7.97432H20.1917C20.3127 8.16532 20.4268 8.36318 20.5328 8.56318H17.9787V9.16328H20.8217C20.9097 9.36328 20.9888 9.56338 21.0588 9.76338H17.3788V10.363H21.2468C21.733 12.137 21.666 14.0173 21.0548 15.7521H17.3788V16.3522H20.8177C20.7277 16.5592 20.6308 16.7521 20.5328 16.9431H17.9787V17.5432H20.1848C20.0518 17.7532 19.9128 17.9543 19.7718 18.1433H18.5788V18.7434H19.2788C18.436 19.6837 17.4046 20.436 16.2518 20.9514C15.099 21.4667 13.8505 21.7332 12.5877 21.7341Z" fill="#E63737"/>
<path d="M2.73655 14.407L3.28325 10.1471L4.13176 10.256L4.753 13.4016C4.80994 13.6945 4.85076 13.9134 4.87548 14.0583C4.9438 13.9095 5.04857 13.6916 5.18978 13.4045L6.59011 10.5714L7.34854 10.6688L6.80184 14.9288L6.25844 14.859L6.71602 11.2935L5.02055 14.7002L4.51202 14.6349L3.74534 10.8503L3.27994 14.4768L2.73655 14.407ZM9.70715 14.9147C9.49229 15.0545 9.29043 15.1467 9.10157 15.1914C8.91464 15.2363 8.7185 15.2456 8.51316 15.2193C8.17414 15.1758 7.92415 15.06 7.76318 14.872C7.60246 14.682 7.53863 14.4582 7.5717 14.2005C7.59109 14.0494 7.64264 13.9162 7.72636 13.8009C7.81226 13.684 7.91527 13.5948 8.03538 13.5334C8.15744 13.4723 8.29069 13.4313 8.43515 13.4104C8.5413 13.3965 8.69964 13.3902 8.91015 13.3917C9.33894 13.3955 9.65757 13.3753 9.86605 13.3312C9.87719 13.2598 9.884 13.2144 9.88649 13.195C9.91384 12.9819 9.8837 12.8254 9.79609 12.7256C9.67759 12.5902 9.4866 12.5057 9.22314 12.4719C8.97711 12.4403 8.78942 12.4605 8.66006 12.5325C8.53288 12.6028 8.42716 12.7439 8.34289 12.9555L7.84041 12.8202C7.91499 12.6072 8.01414 12.4408 8.13784 12.3208C8.26179 12.1988 8.4291 12.115 8.63977 12.0691C8.85069 12.0214 9.08885 12.0145 9.35426 12.0486C9.61772 12.0824 9.82781 12.1409 9.98452 12.224C10.1412 12.3071 10.2522 12.4011 10.3175 12.506C10.3831 12.6089 10.4222 12.734 10.4348 12.8814C10.4408 12.9727 10.4289 13.1346 10.399 13.3671L10.3095 14.0645C10.2471 14.5508 10.2182 14.8601 10.2229 14.9927C10.2297 15.1235 10.2585 15.2522 10.3092 15.3789L9.76291 15.3088C9.72259 15.1933 9.704 15.062 9.70715 14.9147ZM9.81347 13.7409C9.61368 13.7941 9.32045 13.8234 8.93379 13.8289C8.71478 13.8323 8.55823 13.8476 8.46415 13.8749C8.37006 13.9023 8.29396 13.9506 8.23583 14.0199C8.17795 14.0873 8.14317 14.1665 8.13149 14.2576C8.11359 14.3971 8.15097 14.52 8.24365 14.6264C8.33827 14.7331 8.48728 14.7995 8.69069 14.8256C8.89216 14.8514 9.07695 14.8308 9.24505 14.7638C9.41341 14.6948 9.54421 14.5885 9.63747 14.445C9.70881 14.334 9.75928 14.1632 9.78886 13.9327L9.81347 13.7409ZM10.8662 14.514L11.3939 14.499C11.3963 14.7101 11.4564 14.8792 11.5739 15.0066C11.6934 15.1341 11.8723 15.2132 12.1106 15.2438C12.3508 15.2746 12.5352 15.2491 12.6639 15.1671C12.7928 15.0832 12.8657 14.9754 12.8826 14.8437C12.8978 14.7255 12.8584 14.6259 12.7644 14.545C12.6987 14.4893 12.5281 14.4073 12.2525 14.2991C11.8814 14.153 11.6257 14.0355 11.4855 13.9466C11.3474 13.8561 11.2476 13.7438 11.186 13.6099C11.1267 13.4743 11.1067 13.3309 11.126 13.1798C11.1437 13.0423 11.191 12.9193 11.2679 12.8111C11.347 12.7011 11.4457 12.6143 11.5642 12.5508C11.6532 12.5012 11.7701 12.465 11.9148 12.4422C12.0617 12.4177 12.2156 12.4158 12.3763 12.4364C12.6185 12.4675 12.8262 12.5296 12.9993 12.6227C13.1744 12.7161 13.2978 12.8284 13.3696 12.9597C13.4416 13.089 13.4813 13.2556 13.4886 13.4594L12.9682 13.4635C12.9653 13.3016 12.9134 13.169 12.8125 13.0654C12.7135 12.9621 12.5623 12.8974 12.3589 12.8713C12.1187 12.8405 11.9422 12.8582 11.8293 12.9245C11.7164 12.9907 11.6532 13.0771 11.6395 13.1837C11.6308 13.2515 11.6443 13.3152 11.6799 13.3749C11.7153 13.4366 11.7762 13.4917 11.8625 13.5402C11.9124 13.5662 12.0606 13.6306 12.3074 13.7331C12.6647 13.8794 12.912 13.9938 13.049 14.0764C13.1883 14.1573 13.2919 14.2631 13.3598 14.3939C13.4277 14.5247 13.4502 14.6792 13.4273 14.8575C13.4049 15.0318 13.3325 15.1899 13.2099 15.3317C13.0895 15.4718 12.928 15.5722 12.7252 15.6328C12.5228 15.6915 12.3005 15.7053 12.0583 15.6742C11.6573 15.6228 11.3619 15.5002 11.1721 15.3065C10.9843 15.113 10.8823 14.8489 10.8662 14.514ZM15.1349 15.5226L15.1511 15.9943C14.9999 16.0064 14.8662 16.005 14.7499 15.9901C14.5601 15.9658 14.4167 15.9168 14.3198 15.8434C14.2229 15.7699 14.1594 15.682 14.1292 15.5796C14.0992 15.4754 14.1044 15.2663 14.1447 14.9525L14.3725 13.177L13.989 13.1278L14.0412 12.721L14.4247 12.7702L14.5228 12.006L15.0832 11.7589L14.9449 12.8369L15.4709 12.9044L15.4186 13.3113L14.8927 13.2438L14.6611 15.0483C14.642 15.1975 14.6384 15.2945 14.6503 15.3393C14.6642 15.3844 14.6899 15.4222 14.7274 15.4526C14.7668 15.4833 14.8252 15.5036 14.9027 15.5135C14.9608 15.521 15.0382 15.524 15.1349 15.5226ZM17.8292 15.3338L18.3612 15.47C18.2354 15.7748 18.0461 15.9996 17.7932 16.1444C17.5402 16.2891 17.2346 16.3385 16.8762 16.2925C16.4248 16.2346 16.0842 16.0501 15.8544 15.739C15.6267 15.4262 15.5451 15.019 15.6095 14.5172C15.6761 13.9981 15.8615 13.6123 16.1656 13.3599C16.4697 13.1075 16.8349 13.0086 17.2611 13.0633C17.6737 13.1163 17.9928 13.3 18.2183 13.6144C18.4437 13.9289 18.5238 14.3409 18.4584 14.8504C18.4544 14.8814 18.4475 14.9277 18.4376 14.9895L16.1362 14.6941C16.112 15.0356 16.1746 15.3075 16.3239 15.5098C16.4732 15.7121 16.6767 15.8298 16.9343 15.8628C17.1261 15.8874 17.2963 15.8581 17.4448 15.7748C17.5933 15.6914 17.7215 15.5444 17.8292 15.3338ZM16.2204 14.2678L17.9436 14.4889C17.9536 14.2263 17.9128 14.0232 17.8209 13.8795C17.6802 13.6566 17.4771 13.5282 17.2117 13.4941C16.9715 13.4633 16.7587 13.5177 16.5734 13.6574C16.3901 13.7973 16.2724 14.0007 16.2204 14.2678ZM18.896 16.4808L19.2921 13.3948L19.7628 13.4552L19.7028 13.9231C19.851 13.7196 19.9799 13.5894 20.0896 13.5326C20.2012 13.4761 20.3181 13.4556 20.4401 13.4713C20.6164 13.4939 20.7884 13.5731 20.9561 13.7088L20.7136 14.171C20.5954 14.079 20.4724 14.0248 20.3446 14.0084C20.2303 13.9937 20.1231 14.0154 20.0231 14.0735C19.9234 14.1296 19.8463 14.2162 19.7919 14.3333C19.7099 14.5118 19.6548 14.7115 19.6264 14.9323L19.4191 16.548L18.896 16.4808ZM24.1817 15.641L24.7271 15.8557C24.5495 16.3035 24.2911 16.6297 23.9517 16.8343C23.6146 17.0372 23.2242 17.1101 22.7805 17.0532C22.3214 16.9943 21.9595 16.8533 21.6947 16.6303C21.4321 16.4056 21.248 16.1063 21.1424 15.7324C21.0387 15.3587 21.013 14.9685 21.0652 14.5617C21.1221 14.118 21.256 13.7424 21.4668 13.4347C21.6798 13.1253 21.9532 12.9054 22.2869 12.7749C22.6229 12.6428 22.9788 12.6008 23.3546 12.649C23.7808 12.7037 24.1253 12.8582 24.388 13.1125C24.6507 13.3667 24.814 13.6978 24.8779 14.1058L24.3061 14.1653C24.247 13.8427 24.1326 13.5986 23.9629 13.433C23.7931 13.2675 23.5658 13.1665 23.2811 13.1299C22.9537 13.0879 22.6695 13.1312 22.4285 13.2598C22.1895 13.3886 22.0084 13.58 21.8852 13.8339C21.7623 14.086 21.6828 14.3524 21.6467 14.6333C21.6002 14.9956 21.6119 15.3191 21.6817 15.6037C21.7537 15.8866 21.8925 16.1092 22.0981 16.2715C22.3037 16.4338 22.5364 16.5316 22.7959 16.5649C23.1117 16.6054 23.3907 16.5487 23.633 16.3946C23.8753 16.2406 24.0582 15.9894 24.1817 15.641ZM27.2469 17.1656C27.032 17.3054 26.8302 17.3977 26.6413 17.4423C26.4544 17.4873 26.2583 17.4966 26.0529 17.4702C25.7139 17.4267 25.4639 17.3109 25.3029 17.1229C25.1422 16.9329 25.0784 16.7091 25.1114 16.4515C25.1308 16.3004 25.1824 16.1672 25.2661 16.0519C25.352 15.9349 25.455 15.8457 25.5751 15.7844C25.6972 15.7232 25.8304 15.6822 25.9749 15.6614C26.0811 15.6474 26.2394 15.6412 26.4499 15.6426C26.8787 15.6464 27.1973 15.6263 27.4058 15.5821C27.4169 15.5107 27.4237 15.4653 27.4262 15.4459C27.4536 15.2328 27.4235 15.0764 27.3358 14.9765C27.2173 14.8412 27.0264 14.7566 26.7629 14.7228C26.5169 14.6912 26.3292 14.7114 26.1998 14.7835C26.0726 14.8538 25.9669 14.9948 25.8826 15.2065L25.3802 15.0711C25.4547 14.8582 25.5539 14.6917 25.6776 14.5717C25.8015 14.4498 25.9689 14.3659 26.1795 14.3201C26.3904 14.2723 26.6286 14.2655 26.894 14.2995C27.1575 14.3333 27.3676 14.3918 27.5243 14.4749C27.681 14.5581 27.792 14.652 27.8573 14.7569C27.9228 14.8598 27.9619 14.985 27.9745 15.1323C27.9805 15.2237 27.9686 15.3856 27.9388 15.618L27.8493 16.3154C27.7869 16.8017 27.758 17.1111 27.7626 17.2436C27.7695 17.3745 27.7983 17.5032 27.849 17.6298L27.3027 17.5597C27.2623 17.4443 27.2437 17.3129 27.2469 17.1656ZM27.3532 15.9919C27.1534 16.045 26.8602 16.0743 26.4735 16.0798C26.2545 16.0832 26.098 16.0986 26.0039 16.1259C25.9098 16.1532 25.8337 16.2015 25.7756 16.2709C25.7177 16.3383 25.6829 16.4175 25.6712 16.5085C25.6533 16.648 25.6907 16.771 25.7834 16.8774C25.878 16.984 26.027 17.0504 26.2304 17.0765C26.4319 17.1024 26.6167 17.0818 26.7848 17.0147C26.9532 16.9458 27.084 16.8395 27.1772 16.6959C27.2486 16.5849 27.299 16.4142 27.3286 16.1836L27.3532 15.9919ZM28.4911 17.7122L28.8872 14.6262L29.3579 14.6866L29.2979 15.1545C29.4461 14.951 29.575 14.8208 29.6847 14.764C29.7964 14.7074 29.9132 14.687 30.0352 14.7027C30.2115 14.7253 30.3835 14.8045 30.5512 14.9402L30.3087 15.4023C30.1906 15.3104 30.0676 15.2562 29.9397 15.2398C29.8254 15.2251 29.7183 15.2468 29.6183 15.3049C29.5185 15.361 29.4414 15.4476 29.387 15.5647C29.3051 15.7432 29.2499 15.9429 29.2215 16.1637L29.0142 17.7794L28.4911 17.7122ZM32.4809 18.2242L32.5309 17.8349C32.2959 18.1158 31.9886 18.232 31.6089 18.1832C31.3629 18.1517 31.1449 18.0548 30.955 17.8926C30.7671 17.7306 30.6315 17.5212 30.5483 17.2644C30.4673 17.0059 30.447 16.7187 30.4875 16.403C30.5271 16.0949 30.6142 15.8226 30.7489 15.5858C30.8839 15.3472 31.0627 15.1742 31.2852 15.0669C31.5077 14.9596 31.7458 14.9222 31.9996 14.9547C32.1856 14.9786 32.3461 15.0396 32.4812 15.1377C32.6166 15.2338 32.7217 15.3507 32.7966 15.4883L32.9927 13.9598L33.5129 14.0265L32.9662 18.2865L32.4809 18.2242ZM31.0251 16.472C30.9744 16.8671 31.0198 17.1733 31.1613 17.3903C31.3028 17.6073 31.4868 17.7304 31.7135 17.7595C31.9421 17.7888 32.1477 17.7207 32.3305 17.5551C32.5154 17.3878 32.6324 17.1124 32.6817 16.7288C32.7359 16.3065 32.6943 15.9861 32.5569 15.7676C32.4195 15.5492 32.2317 15.4246 31.9934 15.3941C31.761 15.3642 31.5541 15.4342 31.3728 15.6039C31.1935 15.7738 31.0776 16.0632 31.0251 16.472Z" fill="white"/>
</svg>
