<svg width="40" height="26" viewBox="0 0 40 26" fill="none" xmlns="http://www.w3.org/2000/svg">
<path d="M2.40977 0.385986H37.3918C37.6151 0.390407 37.8352 0.439022 38.0398 0.528564C38.2443 0.618107 38.4293 0.746933 38.584 0.907959C38.7387 1.06898 38.8602 1.25906 38.9415 1.46704C39.0228 1.67502 39.0622 1.8971 39.0577 2.12036V23.7961C39.0666 24.2469 38.896 24.6826 38.5836 25.0076C38.2712 25.3326 37.8425 25.5201 37.3918 25.5291H2.40977C1.95905 25.5201 1.5303 25.3326 1.21788 25.0076C0.90545 24.6826 0.734915 24.2469 0.743755 23.7961V2.12036C0.739245 1.8971 0.778796 1.67502 0.860088 1.46704C0.941379 1.25906 1.0628 1.06898 1.21751 0.907959C1.37222 0.746933 1.55713 0.618107 1.7617 0.528564C1.96626 0.439022 2.18651 0.390407 2.40977 0.385986Z" fill="#353A40"/>
<path d="M23.4327 16.9503C23.1684 16.8159 22.9509 16.6042 22.8088 16.3439C22.6384 16.0252 22.5556 15.6674 22.5688 15.3063C22.5542 15.0601 22.5884 14.8135 22.6698 14.5807C22.7512 14.3479 22.878 14.1337 23.0428 13.9503C23.2181 13.7834 23.4257 13.6542 23.653 13.5709C23.8802 13.4877 24.1222 13.4517 24.3638 13.466C24.6072 13.4503 24.8513 13.4845 25.0811 13.5665C25.3108 13.6486 25.5214 13.7767 25.6998 13.943C25.8631 14.123 25.9887 14.3338 26.0692 14.5631C26.1498 14.7924 26.1837 15.0354 26.1688 15.278C26.1837 15.6296 26.1151 15.9798 25.9688 16.2999C25.8366 16.5605 25.6308 16.7765 25.3768 16.921C25.0794 17.0783 24.746 17.155 24.4098 17.1432C24.0736 17.1553 23.7391 17.0894 23.4327 16.9503ZM23.8387 14.5333C23.7098 14.7717 23.6423 15.0382 23.6423 15.3092C23.6423 15.5802 23.7098 15.8468 23.8387 16.0851C23.9067 16.1589 23.9894 16.2176 24.0813 16.2579C24.1732 16.2982 24.2724 16.3195 24.3728 16.3195C24.4732 16.3195 24.5724 16.2982 24.6643 16.2579C24.7562 16.2176 24.8387 16.1589 24.9067 16.0851C25.0583 15.8378 25.1251 15.5476 25.0968 15.2589C25.1183 14.9984 25.0476 14.7387 24.8969 14.525C24.8308 14.4485 24.7481 14.3883 24.6553 14.3483C24.5624 14.3083 24.4618 14.2896 24.3608 14.2941C24.2613 14.2913 24.1625 14.3112 24.072 14.3527C23.9815 14.3941 23.9016 14.4562 23.8387 14.5333ZM13.9268 17.1071C13.7525 17.0899 13.5829 17.0404 13.4268 16.9611C13.2852 16.8838 13.1602 16.7794 13.0588 16.6539C12.955 16.5349 12.877 16.396 12.8298 16.2452C12.7685 16.0509 12.7348 15.8489 12.7299 15.6451V13.527H13.8008V15.695C13.796 15.7774 13.8075 15.8602 13.8348 15.9381C13.8621 16.016 13.9047 16.0876 13.9598 16.1491C14.0812 16.2533 14.2358 16.3107 14.3958 16.3107C14.5557 16.3107 14.7104 16.2533 14.8318 16.1491C14.8869 16.087 14.9293 16.0146 14.9564 15.9362C14.9835 15.8577 14.9948 15.7749 14.9897 15.692V13.5241H16.0608V15.6422C16.0613 15.8464 16.0276 16.0493 15.9608 16.2423C15.8992 16.4259 15.7965 16.5929 15.6608 16.7311C15.541 16.8617 15.3939 16.9639 15.2299 17.0309C14.9886 17.1149 14.7341 17.155 14.4788 17.1491C14.2944 17.1454 14.1105 17.1311 13.9279 17.1061L13.9268 17.1071ZM29.0658 17.0831L27.7657 15.131V17.0831H26.7557V13.528H27.7557L29.0648 15.4943V13.528H30.0768V17.0831H29.0658ZM19.0878 17.0831L17.7878 15.131V17.0831H16.7778V13.528H17.7778L19.0858 15.4943V13.528H20.0978V17.0831H19.0878ZM20.8578 17.0739V13.525H21.9377V17.0739H20.8578ZM12.6528 12.0929C12.4213 11.853 12.2838 11.5381 12.2657 11.2052L13.2878 11.1403C13.2985 11.2789 13.3446 11.4122 13.4218 11.528C13.4775 11.5996 13.5497 11.6567 13.6322 11.6945C13.7147 11.7322 13.8051 11.7499 13.8958 11.7452C14.0238 11.7538 14.1505 11.7139 14.2509 11.6339C14.2884 11.6042 14.3188 11.5666 14.34 11.5236C14.3611 11.4806 14.3723 11.4333 14.3729 11.3854C14.3735 11.3375 14.3633 11.2902 14.3433 11.2467C14.3232 11.2032 14.2937 11.1646 14.2568 11.1339C14.0906 11.0262 13.9029 10.9558 13.7068 10.9279C13.3413 10.8667 12.996 10.7189 12.6998 10.4962C12.6022 10.4112 12.5245 10.3053 12.4727 10.1867C12.4208 10.068 12.3959 9.93961 12.3998 9.81019C12.4003 9.62648 12.4541 9.44677 12.5548 9.2931C12.6688 9.12168 12.8314 8.98847 13.0219 8.91029C13.2943 8.80593 13.5853 8.75846 13.8768 8.77113C14.2337 8.74732 14.5891 8.83607 14.8928 9.02503C15.0154 9.12197 15.1158 9.24414 15.1875 9.38294C15.2592 9.52175 15.3006 9.67418 15.3088 9.83021L14.2968 9.89124C14.2835 9.75836 14.2233 9.63447 14.1268 9.54212C14.0247 9.46419 13.898 9.42562 13.7698 9.43324C13.6691 9.4259 13.5692 9.45467 13.4878 9.51429C13.4578 9.53824 13.4337 9.56851 13.4172 9.60316C13.4008 9.63781 13.3925 9.67564 13.3928 9.714C13.3936 9.74394 13.4011 9.77328 13.4148 9.79994C13.4285 9.82659 13.4479 9.85018 13.4718 9.86829C13.581 9.93783 13.7043 9.98212 13.8328 9.99818C14.1803 10.0625 14.5191 10.1679 14.8418 10.3121C15.0238 10.3994 15.1774 10.5363 15.2848 10.7072C15.3776 10.8664 15.4254 11.0478 15.4229 11.2321C15.4241 11.4559 15.3597 11.6752 15.2378 11.8629C15.1124 12.0567 14.9326 12.2091 14.7208 12.3009C14.4555 12.408 14.1707 12.4591 13.8848 12.4503C13.4431 12.4965 13.001 12.3676 12.6528 12.0919V12.0929ZM29.0668 12.3829L27.7668 10.4303V12.3829H26.7568V8.82826H27.7568L29.0658 10.7951V8.82826H30.0778V12.3829H29.0668ZM25.1918 12.3829L24.6178 11.296C24.5716 11.193 24.5054 11.1002 24.4229 11.0231C24.3459 10.9681 24.2534 10.939 24.1588 10.9401H24.0638V12.3829H22.9847V8.82826H24.7738C25.0304 8.81818 25.2871 8.84744 25.5348 8.91517C25.7087 8.972 25.8585 9.08555 25.9598 9.23792C26.071 9.409 26.1272 9.61017 26.1208 9.8141C26.1253 9.99226 26.0829 10.1687 25.9978 10.3253C25.9154 10.4677 25.7985 10.5867 25.6578 10.672C25.5404 10.7388 25.4131 10.7868 25.2808 10.8141C25.38 10.8434 25.4744 10.8871 25.5608 10.944C25.6251 10.9996 25.6825 11.0627 25.7318 11.132C25.7889 11.2004 25.8395 11.2743 25.8828 11.3522L26.4028 12.3829H25.1918ZM24.0648 10.2672H24.5178C24.6138 10.2603 24.7088 10.2439 24.8018 10.2189C24.8714 10.2046 24.9335 10.1652 24.9758 10.108C25.0209 10.0485 25.0449 9.97566 25.0438 9.90101C25.0469 9.85165 25.0389 9.80234 25.0204 9.75648C25.0019 9.71062 24.9733 9.66924 24.9368 9.63587C24.8171 9.56233 24.6765 9.53052 24.5367 9.54505H24.0648V10.2672ZM19.4648 12.3829V8.82826H22.3428V9.58704H20.5428V10.152H22.2148V10.8781H20.5428V11.5783H22.3978V12.3829H19.4648ZM16.8127 12.3829V9.70619H15.7178V8.82826H18.9828V9.70619H17.8828V12.3829H16.8127ZM8.94775 12.3829V8.82826H11.8258V9.58704H10.0258V10.152H11.6968V10.8781H10.0178V11.5783H11.8708V12.3829H8.94775ZM6.78076 12.3829L6.17175 10.1442L5.56482 12.3829H4.51184L3.73877 8.82826H4.75879L5.12585 10.818L5.66382 8.82826H6.67981L7.21875 10.816L7.58582 8.82826H8.60083L7.83484 12.3829H6.78076Z" fill="#ECD345"/>
<path d="M34.8678 17.1453V8.76538H36.0677V17.1453H34.8678ZM31.8778 17.1453V8.76538H33.0778V17.1453H31.8778Z" fill="#ECD345"/>
</svg>
